# xmcd
#
# Track frame offsets:
#	183
#	12893
#	24058
#	34433
#	46790
#	60075
#	73243
#	82123
#	92988
#	104103
#	115623
#	125993
#	137880
#
# Disc length: 1969 seconds
#
# Revision: 1
# Processed by: cddbd v1.5.2PL0 Copyright (c) Steve Scherf et al.
# Submitted via: audiograbber 1.83.01
#
DISCID=b307af0d
DTITLE=Luiz Gonzaga (Instrumental) - Forrobodó Cigano
DYEAR=1900
DGENRE=Forró
TTITLE0=Forrobodó Cigano
TTITLE1=Oi o Freio
TTITLE2=Arrasta Frevo
TTITLE3=Depois da Festa
TTITLE4=Xaxá Mulher
TTITLE5=Do Jeito Que Vocês Gostam 
TTITLE6=Ao Mestre Capiba
TTITLE7=Forró Apracatado
TTITLE8=Festa na Roça
TTITLE9=Meus Dezoito Anos
TTITLE10=Tá Ruço
TTITLE11=Manhã de Junho
TTITLE12=Baile na Roça
EXTD=
EXTT0=
EXTT1=
EXTT2=
EXTT3=
EXTT4=
EXTT5=
EXTT6=
EXTT7=
EXTT8=
EXTT9=
EXTT10=
EXTT11=
EXTT12=
PLAYORDER=
